<?xml version="1.0"?>
<svg xmlns="http://www.w3.org/2000/svg" xmlns:xlink="http://www.w3.org/1999/xlink" xmlns:svgjs="http://svgjs.com/svgjs" version="1.1" width="512" height="512" x="0" y="0" viewBox="0 0 512 512" style="enable-background:new 0 0 512 512" xml:space="preserve" class=""><g><path xmlns="http://www.w3.org/2000/svg" d="m300 286h60v30h-60zm0 0" fill="#193562" data-original="#000000" style="" class=""/><path xmlns="http://www.w3.org/2000/svg" d="m90 286h120v150h-120zm0 0" fill="#193562" data-original="#000000" style="" class=""/><path xmlns="http://www.w3.org/2000/svg" d="m0 15v46h450v-46c0-8.289062-6.710938-15-15-15h-420c-8.289062 0-15 6.710938-15 15zm0 0" fill="#193562" data-original="#000000" style="" class=""/><path xmlns="http://www.w3.org/2000/svg" d="m300 406h60v30h-60zm0 0" fill="#193562" data-original="#000000" style="" class=""/><path xmlns="http://www.w3.org/2000/svg" d="m90 166h270v30h-270zm0 0" fill="#193562" data-original="#000000" style="" class=""/><path xmlns="http://www.w3.org/2000/svg" d="m0 497c0 8.289062 6.710938 15 15 15h420c8.289062 0 15-6.710938 15-15v-406h-450zm390-46c0 8.289062-6.710938 15-15 15h-90c-8.289062 0-15-6.710938-15-15v-60c0-8.289062 6.710938-15 15-15h90c8.289062 0 15 6.710938 15 15zm0-120c0 8.289062-6.710938 15-15 15h-90c-8.289062 0-15-6.710938-15-15v-60c0-8.289062 6.710938-15 15-15h90c8.289062 0 15 6.710938 15 15zm-330-180c0-8.289062 6.710938-15 15-15h300c8.289062 0 15 6.710938 15 15v60c0 8.289062-6.710938 15-15 15h-300c-8.289062 0-15-6.710938-15-15zm0 120c0-8.289062 6.710938-15 15-15h150c8.289062 0 15 6.710938 15 15v180c0 8.289062-6.710938 15-15 15h-150c-8.289062 0-15-6.710938-15-15zm0 0" fill="#193562" data-original="#000000" style="" class=""/></g></svg>
