<svg xmlns="http://www.w3.org/2000/svg" x="0px" y="0px"
width="100" height="100"
viewBox="0 0 172 172"
style=" fill:#000000;"><g fill="none" fill-rule="nonzero" stroke="none" stroke-width="1" stroke-linecap="butt" stroke-linejoin="miter" stroke-miterlimit="10" stroke-dasharray="" stroke-dashoffset="0" font-family="none" font-weight="none" font-size="none" text-anchor="none" style="mix-blend-mode: normal"><path d="M0,172v-172h172v172z" fill="none"></path><g><path d="M93.08425,30.45833h35.83333v48.375h-35.83333z" fill="#3e2723"></path><path d="M100.25092,58.87417v15.35458c0,0 1.83467,15.35458 10.75,15.35458c8.901,0 10.75,-15.35458 10.75,-15.35458v-15.35458z" fill="#d19d05"></path><path d="M132.50092,32.79467c0,-18.05642 -43,-11.75692 -43,0v18.64408c0,11.75692 9.61767,21.28858 21.5,21.28858c11.87158,0 21.5,-9.53167 21.5,-21.28858z" fill="#ebb81d"></path><path d="M98.45925,47.47917c0,-1.4835 1.204,-2.6875 2.6875,-2.6875c1.4835,0 2.6875,1.204 2.6875,2.6875c0,1.4835 -1.204,2.6875 -2.6875,2.6875c-1.48708,0 -2.6875,-1.204 -2.6875,-2.6875M118.16758,47.47917c0,1.4835 1.204,2.6875 2.6875,2.6875c1.4835,0 2.6875,-1.204 2.6875,-2.6875c0,-1.4835 -1.204,-2.6875 -2.6875,-2.6875c-1.48708,0 -2.6875,1.204 -2.6875,2.6875" fill="#784719"></path><path d="M111.00092,10.75c-14.83858,0 -35.83333,5.17792 -35.83333,53.75l17.91667,14.33333v-35.83333l28.66667,-14.33333l7.16667,11.0725v39.09417l17.91667,-14.33333c0,-9.83983 -0.8385,-48.86592 -26.06158,-48.86592l-2.60508,-4.88408z" fill="#4e342e"></path><path d="M121.75092,75.25l-0.16842,0.043c-0.602,3.44358 -3.08167,14.29033 -10.58158,14.29033c-7.49992,0 -9.97958,-10.84675 -10.58158,-14.29033l-0.16842,-0.043c0,0 -28.52692,4.99875 -28.58425,32.25h-0.08242v21.5h78.83333v-21.42833h0.08242c0,-27.22617 -28.74908,-32.32167 -28.74908,-32.32167z" fill="#193562"></path><path d="M121.75092,75.25l-0.16842,0.043c-0.602,3.44358 -3.08167,14.29033 -10.58158,14.29033c-7.49992,0 -9.97958,-10.84675 -10.58158,-14.29033l-0.16842,-0.043c0,0 -28.52692,4.99875 -28.58425,32.25h-0.08242v21.5h78.83333v-21.42833h0.08242c0,-27.22617 -28.74908,-32.32167 -28.74908,-32.32167z" fill="#193562"></path><path d="M111.00092,96.75c11.00083,0 15.98525,-11.33767 17.51175,-19.44317c-3.90942,-1.55158 -6.76175,-2.05683 -6.76175,-2.05683l-0.16842,0.043c-0.602,3.44358 -3.08167,14.29033 -10.58158,14.29033c-7.49992,0 -9.97958,-10.84675 -10.58158,-14.29033l-0.16842,-0.043c0,0 -2.85592,0.50525 -6.76175,2.0425c1.51217,8.1055 6.50733,19.4575 17.51175,19.4575z" fill="#496dab"></path><path d="M78.83333,69.875c0,2.967 -2.408,5.375 -5.375,5.375c-2.967,0 -5.375,-2.408 -5.375,-5.375c0,-2.967 2.408,-5.375 5.375,-5.375c2.967,0 5.375,2.408 5.375,5.375M39.41667,69.875c0,2.967 -2.408,5.375 -5.375,5.375c-2.967,0 -5.375,-2.408 -5.375,-5.375c0,-2.967 2.408,-5.375 5.375,-5.375c2.967,0 5.375,2.408 5.375,5.375" fill="#edbd28"></path><path d="M93.24908,129.07167c0,-27.22617 -28.74908,-32.32167 -28.74908,-32.32167l-10.66758,2.54775l-10.83242,-2.54775c0,0 -28.52692,4.99875 -28.58425,32.25h-0.08242v7.16667h78.83333v-7.095z" fill="#193562"></path><path d="M53.75,107.5c-10.75,0 -10.75,-10.75 -10.75,-10.75v-14.33333h21.5v14.33333c0,0 0,10.75 -10.75,10.75z" fill="#edb405"></path><path d="M53.75,114.66667c11.88233,0 16.90975,-8.74692 17.76258,-15.74875c-4.03125,-1.62325 -7.01258,-2.16792 -7.01258,-2.16792c0,0 0,10.75 -10.75,10.75c-10.75,0 -10.75,-10.75 -10.75,-10.75c0,0 -2.99567,0.53033 -7.01258,2.15717c0.85283,7.01258 5.88025,15.7595 17.76258,15.7595z" fill="#567dc1"></path><path d="M75.25,54.29467c0,-18.05642 -43,-11.75692 -43,0v18.64408c0,11.75692 9.61767,21.28858 21.5,21.28858c11.868,0 21.5,-9.53167 21.5,-21.28858z" fill="#ffca28"></path><path d="M75.25,54.29467c0,-18.05642 -43,-11.75692 -43,0v18.64408c0,11.75692 9.61767,21.28858 21.5,21.28858c11.868,0 21.5,-9.53167 21.5,-21.28858z" fill="#ffca28"></path><path d="M53.75,32.25c-15.2435,0 -25.08333,13.51992 -25.08333,25.61367v6.63633l7.16667,7.16667v-10.75l28.66667,-10.75l7.16667,7.16667v14.33333l7.16667,-7.16667v-3.42925c0,-10.09067 -2.60508,-21.33158 -15.04642,-23.81125l-2.87025,-5.0095z" fill="#795548"></path><path d="M41.20833,68.97917c0,1.4835 1.204,2.6875 2.6875,2.6875c1.4835,0 2.6875,-1.204 2.6875,-2.6875c0,-1.4835 -1.204,-2.6875 -2.6875,-2.6875c-1.4835,0 -2.6875,1.204 -2.6875,2.6875M60.91667,68.97917c0,1.4835 1.204,2.6875 2.6875,2.6875c1.4835,0 2.6875,-1.204 2.6875,-2.6875c0,-1.4835 -1.204,-2.6875 -2.6875,-2.6875c-1.4835,0 -2.6875,1.204 -2.6875,2.6875" fill="#784719"></path><path d="M157.66667,125.41667c0,19.79075 -16.04258,35.83333 -35.83333,35.83333c-19.79075,0 -35.83333,-16.04258 -35.83333,-35.83333c0,-19.79075 16.04258,-35.83333 35.83333,-35.83333c19.79075,0 35.83333,16.04258 35.83333,35.83333" fill="#43a047"></path><path d="M114.66667,103.91667h14.33333v43h-14.33333z" fill="#ffffff"></path><path d="M100.33333,118.25h43v14.33333h-43z" fill="#ffffff"></path></g></g></svg>