<?xml version="1.0"?>
<svg xmlns="http://www.w3.org/2000/svg" xmlns:xlink="http://www.w3.org/1999/xlink" xmlns:svgjs="http://svgjs.com/svgjs" version="1.1" width="512" height="512" x="0" y="0" viewBox="0 0 512.226 512.226" style="enable-background:new 0 0 512 512" xml:space="preserve" class=""><g><g xmlns="http://www.w3.org/2000/svg"><g><path d="m512.222 368.544c-.023-2.556-.688-5.109-2.005-7.403l-91.594-160.618-49.813 4.306-33.315 45.207 68.023 118.507 50.735 20.135z" fill="#193562" data-original="#2e3e6e" style="" class=""/></g><path d="m109.04 368.902.007-.012-36.636 41.117-17.198 52.578c2.246 1.222 4.815 1.825 7.482 1.631l189.321.02 17.208-47.729-16.992-47.713z" fill="#193562" data-original="#4a75e5" style="" class=""/><path d="m256.114 111.744 1.161 2.022-16.924-51.538-37.043-44.208c-2.271 1.302-4.206 3.192-5.567 5.535l-93.22 161.013 29.173 46.671h54.078z" fill="#193562" data-original="#4a75e5" style="" class=""/><path d="m197.931 275.503-24.382-106.237c-.655-2.852-3.588-4.553-6.389-3.703l-104.788 31.794c-4.24 1.287-4.886 7.021-1.038 9.218l22.915 13.083-82.21 141.922c-2.744 4.741-2.716 10.594.074 15.308l47.517 80.275c1.369 2.313 3.301 4.177 5.562 5.46l111.718-194.907 23.595 13.302c3.821 2.182 8.41-1.227 7.426-5.515z" fill="#6592d9" data-original="#9cd6f4" style="" class=""/><g fill="#7fa6fb"><path d="m403.918 368.652.112.03-110.41-.036-.079-26.659c-.013-4.403-5.262-6.682-8.487-3.685l-80.107 74.426c-2.144 1.992-2.152 5.383-.016 7.384l79.711 74.725c3.219 3.018 8.489.746 8.504-3.667l.093-26.927 160.129.072c4.166-.87 7.83-3.466 10.012-7.233l46.808-80.804c1.365-2.356 2.043-4.987 2.039-7.619z" fill="#6592d9" data-original="#7fa6fb" style="" class=""/><path d="m420.814 153.231-21.891 12.746-80.914-141.889c-2.672-4.76-7.698-7.715-13.157-7.734l-93.954-.34c-2.715-.01-5.329.708-7.604 2.015l52.835 93.706 1.145 2.031 57.688 100.502-23.234 13.554c-3.809 2.218-3.148 7.909 1.068 9.194l104.497 31.868c2.799.854 5.736-.843 6.394-3.694l24.588-106.459c.996-4.309-3.638-7.726-7.461-5.5z" fill="#6592d9" data-original="#7fa6fb" style="" class=""/></g></g></g></svg>
