<?xml version="1.0"?>
<svg xmlns="http://www.w3.org/2000/svg" xmlns:xlink="http://www.w3.org/1999/xlink" xmlns:svgjs="http://svgjs.com/svgjs" version="1.1" width="512" height="512" x="0" y="0" viewBox="0 0 504.123 504.123" style="enable-background:new 0 0 512 512" xml:space="preserve" class=""><g>
<g xmlns="http://www.w3.org/2000/svg">
	<path style="" d="M109.324,93.633c-84.921,84.921-84.921,223.106,0,308.027s223.106,84.921,308.027-0.008   c84.921-84.921,84.921-223.09,0-308.019S194.245,8.704,109.324,93.633z M385.182,369.483   c-28.341,28.349-109.954,9.886-181.752-61.921c-58.321-58.313-81.432-123.101-72.909-160.555l208.014,207.998l32.169-32.161   L162.249,114.381c42.228-10.72,112.616,24.954,161.012,73.35C380.881,245.358,420.494,334.179,385.182,369.483z M141.509,369.483   c-40.582-40.566-56.462-96.5-48.049-149.244c13.462,39.629,39.936,81.644,77.785,119.501   c37.864,37.841,79.864,64.323,119.493,77.785C237.986,425.945,182.075,410.073,141.509,369.483z M433.215,275.047   c-13.462-39.629-39.936-81.636-77.785-119.477c-37.849-37.864-79.864-64.339-119.493-77.8   c52.768-8.444,108.678,7.459,149.244,48.041C425.756,166.377,441.659,222.287,433.215,275.047z" fill="#193562" data-original="#f94a28" class=""/>
	
		<ellipse transform="matrix(-0.7071 -0.7071 0.7071 -0.7071 268.624 611.417)" style="" cx="260.941" cy="250.075" rx="12.508" ry="201.309" fill="#193562" data-original="#f94a28" class=""/>
</g>
<path xmlns="http://www.w3.org/2000/svg" style="" d="M501.429,467.732c0,20.094-16.289,36.391-36.383,36.391H61.645  c-20.094,0-36.384-16.297-36.384-36.391V343.371c0-20.094,16.289-36.391,36.384-36.391h403.401  c20.094,0,36.384,16.297,36.384,36.391L501.429,467.732L501.429,467.732z" fill="#35568b" data-original="#105fa0" class=""/>
<path xmlns="http://www.w3.org/2000/svg" style="" d="M465.046,306.98c20.094,0,36.384,16.297,36.384,36.391v124.361c0,20.094-16.289,36.391-36.383,36.391  H61.645c-20.094,0-36.384-16.297-36.384-36.391" fill="#193562" data-original="#093a56" class=""/>
<g xmlns="http://www.w3.org/2000/svg">
	<path style="" d="M164.659,422.321h-24.741v-52.996c0-2.276-1.827-4.12-4.104-4.12h-14.431   c-2.276,0-4.12,1.843-4.12,4.12v70.632c0,2.269,1.843,4.12,4.12,4.12h43.276c2.276,0,4.12-1.851,4.12-4.12v-13.525   C168.787,424.165,166.936,422.321,164.659,422.321z" fill="#ffffff" data-original="#ffffff"/>
	<path style="" d="M222.397,365.206h-14.431c-2.276,0-4.12,1.843-4.12,4.12v70.632c0,2.269,1.843,4.12,4.12,4.12   h14.431c2.276,0,4.104-1.851,4.104-4.12v-70.632C226.509,367.057,224.674,365.206,222.397,365.206z" fill="#ffffff" data-original="#ffffff"/>
	<path style="" d="M323.387,365.206h-14.431c-1.678,0-3.214,1.032-3.828,2.615l-12.091,30.696l-12.091-30.696   c-0.63-1.583-2.135-2.615-3.844-2.615h-14.415c-1.386,0-2.662,0.701-3.419,1.843c-0.772,1.15-0.906,2.599-0.386,3.86l30.358,72.444   c0.646,1.528,2.135,2.521,3.797,2.521s3.151-0.992,3.797-2.521l30.358-72.444c0.536-1.26,0.402-2.718-0.37-3.86   C326.065,365.907,324.781,365.206,323.387,365.206z" fill="#ffffff" data-original="#ffffff"/>
	<path style="" d="M405.323,422.321h-23.859v-8.609h21.74c2.276,0,4.12-1.835,4.12-4.104v-13.225   c0-2.276-1.843-4.12-4.12-4.12h-21.74v-5.285h23.245c2.276,0,4.12-1.843,4.12-4.12v-13.525c0-2.276-1.843-4.12-4.12-4.12h-41.771   c-2.276,0-4.12,1.843-4.12,4.12v70.632c0,2.269,1.843,4.12,4.12,4.12h42.386c2.276,0,4.104-1.851,4.104-4.12v-13.525   C409.435,424.165,407.599,422.321,405.323,422.321z" fill="#ffffff" data-original="#ffffff"/>
</g>
<path xmlns="http://www.w3.org/2000/svg" style="" d="M80.597,344.127c0,10.468-8.491,18.952-18.952,18.952l0,0c-10.476,0-18.968-8.483-18.968-18.952l0,0  c0-10.476,8.491-18.952,18.968-18.952l0,0C72.105,325.175,80.597,333.651,80.597,344.127L80.597,344.127z" fill="#193562" data-original="#f94a28" class=""/>
<path xmlns="http://www.w3.org/2000/svg" style="" d="M61.645,325.175L61.645,325.175c10.461,0,18.952,8.476,18.952,18.952l0,0  c0,10.468-8.491,18.952-18.952,18.952l0,0" fill="#c3cedf" data-original="#ff9750" class=""/>
<g xmlns="http://www.w3.org/2000/svg">
	<path style="" d="M123.92,5.908c0.016,3.261-2.631,5.908-5.908,5.908c-57.076,0-103.503,46.434-103.503,103.519   c-0.016,3.269-2.647,5.908-5.908,5.908c-3.277,0-5.923-2.639-5.908-5.908C2.678,51.728,54.414,0,118.012,0   C121.273-0.023,123.92,2.631,123.92,5.908z" fill="#35568b" data-original="#105fa0" class=""/>
	<path style="" d="M122.337,35.352c0,2.395-1.938,4.332-4.324,4.332c-41.708,0-75.65,33.942-75.65,75.65   c0,2.379-1.938,4.324-4.309,4.309c-2.387,0.008-4.324-1.93-4.324-4.324c0-46.458,37.801-84.267,84.259-84.267   C120.399,31.043,122.337,32.965,122.337,35.352z" fill="#35568b" data-original="#105fa0" class=""/>
	<path style="" d="M120.942,61.07c0,1.631-1.308,2.938-2.938,2.93C89.726,64.008,66.71,87.024,66.71,115.318   c0,1.631-1.323,2.946-2.954,2.938c-1.599,0.008-2.922-1.3-2.922-2.938c0-31.523,25.647-57.179,57.171-57.179   C119.643,58.148,120.95,59.455,120.942,61.07z" fill="#35568b" data-original="#105fa0" class=""/>
</g>
<g xmlns="http://www.w3.org/2000/svg">
</g>
<g xmlns="http://www.w3.org/2000/svg">
</g>
<g xmlns="http://www.w3.org/2000/svg">
</g>
<g xmlns="http://www.w3.org/2000/svg">
</g>
<g xmlns="http://www.w3.org/2000/svg">
</g>
<g xmlns="http://www.w3.org/2000/svg">
</g>
<g xmlns="http://www.w3.org/2000/svg">
</g>
<g xmlns="http://www.w3.org/2000/svg">
</g>
<g xmlns="http://www.w3.org/2000/svg">
</g>
<g xmlns="http://www.w3.org/2000/svg">
</g>
<g xmlns="http://www.w3.org/2000/svg">
</g>
<g xmlns="http://www.w3.org/2000/svg">
</g>
<g xmlns="http://www.w3.org/2000/svg">
</g>
<g xmlns="http://www.w3.org/2000/svg">
</g>
<g xmlns="http://www.w3.org/2000/svg">
</g>
</g></svg>
