<?xml version="1.0"?>
<svg xmlns="http://www.w3.org/2000/svg" xmlns:xlink="http://www.w3.org/1999/xlink" xmlns:svgjs="http://svgjs.com/svgjs" version="1.1" width="512" height="512" x="0" y="0" viewBox="0 0 94.1 94.1" style="enable-background:new 0 0 512 512" xml:space="preserve" class=""><g>
<g xmlns="http://www.w3.org/2000/svg">
	<g>
		<polygon points="25.654,25.87 0,68.544 51.306,68.544   " fill="#193562" data-original="#000000" style="" class=""/>
		<polygon points="68.447,68.544 94.1,25.87 42.794,25.87   " fill="#193562" data-original="#000000" style="" class=""/>
		<g>
			<path d="M44.536,8.782c6.193-0.467,12.222,1.201,17.236,4.727l-3.689,4.319l14.229,1.688L68.68,5.424l-2.953,3.455     C59.473,4.315,51.885,2.134,44.08,2.724c-8.692,0.656-16.607,4.659-22.291,11.27l4.607,3.961     C31.02,12.573,37.461,9.317,44.536,8.782z" fill="#193562" data-original="#000000" style="" class=""/>
			<path d="M49.564,85.317c-6.193,0.467-12.222-1.201-17.237-4.727l3.69-4.319l-14.229-1.688l3.633,14.092l2.952-3.455     c6.254,4.563,13.842,6.745,21.649,6.155c8.689-0.656,16.605-4.659,22.289-11.271l-4.607-3.96     C63.08,81.526,56.639,84.782,49.564,85.317z" fill="#193562" data-original="#000000" style="" class=""/>
		</g>
	</g>
</g>
<g xmlns="http://www.w3.org/2000/svg">
</g>
<g xmlns="http://www.w3.org/2000/svg">
</g>
<g xmlns="http://www.w3.org/2000/svg">
</g>
<g xmlns="http://www.w3.org/2000/svg">
</g>
<g xmlns="http://www.w3.org/2000/svg">
</g>
<g xmlns="http://www.w3.org/2000/svg">
</g>
<g xmlns="http://www.w3.org/2000/svg">
</g>
<g xmlns="http://www.w3.org/2000/svg">
</g>
<g xmlns="http://www.w3.org/2000/svg">
</g>
<g xmlns="http://www.w3.org/2000/svg">
</g>
<g xmlns="http://www.w3.org/2000/svg">
</g>
<g xmlns="http://www.w3.org/2000/svg">
</g>
<g xmlns="http://www.w3.org/2000/svg">
</g>
<g xmlns="http://www.w3.org/2000/svg">
</g>
<g xmlns="http://www.w3.org/2000/svg">
</g>
</g></svg>
